<svg data-v-fde0c5aa="" xmlns="http://www.w3.org/2000/svg" viewBox="0 0 300 300" class="iconAbove"><!----><defs data-v-fde0c5aa=""><linearGradient data-v-fde0c5aa="" gradientTransform="rotate(25)" id="3ebbb8f5-8d87-4e71-9313-0ba8cffed63d" x1="0%" y1="0%" x2="100%" y2="0%"><stop data-v-fde0c5aa="" offset="0%" stop-color="#B4373D" stop-opacity="1"></stop><stop data-v-fde0c5aa="" offset="100%" stop-color="#B23ACB" stop-opacity="1"></stop></linearGradient></defs><rect data-v-fde0c5aa="" fill="url(#3ebbb8f5-8d87-4e71-9313-0ba8cffed63d)" x="0" y="0" width="300px" height="300px" class="logo-background-square"></rect><defs data-v-fde0c5aa=""><!----></defs><g data-v-fde0c5aa="" id="9d2df5b9-914f-4581-af35-b56073dac6dc" fill="#ffffff" transform="matrix(2.831010580062866,0,0,2.831010580062866,19.660278739691616,167.53549681553346)"><path d="M0.12 8.85L0.12 1.93L2.06 1.93L2.06 5.95L1.69 5.95L1.69 10.10L4.58 10.10L4.58 10.97L4.01 10.97L4.01 11.17L4.58 11.17L4.58 11.73L2.71 11.73L2.71 11.58L0.14 11.58L0.14 11.58Q0.12 11.42 0.12 11.33L0.12 11.33L0.12 9.15L0.62 9.15L0.62 8.85L0.12 8.85ZM1.95 9.79L1.82 9.59L1.93 9.59L1.93 9.59Q2.02 9.71 2.03 9.71L2.03 9.71L2.03 9.71Q2.08 9.59 2.11 9.59L2.11 9.59L2.21 9.59L2.21 9.59Q2.19 9.65 2.08 9.79L2.08 9.79L2.08 9.79Q2.12 9.86 2.23 10.02L2.23 10.02L2.11 10.02L2.11 10.02Q2.03 9.95 2.03 9.88L2.03 9.88L2.03 9.88Q2.02 9.88 1.91 10.02L1.91 10.02L1.82 10.02L1.82 10.00L1.95 9.80L1.95 9.79ZM4.58 11.17L4.58 10.97L5.29 10.97L5.29 11.17L4.58 11.17ZM9.03 1.95L9.03 1.95L9.03 1.95Q11.14 1.95 11.80 3.42L11.80 3.42L11.80 3.42Q12.17 4.14 12.17 6.19L12.17 6.19L12.17 6.23L11.45 6.23L11.45 6.56L12.17 6.56L12.17 10.10L11.70 10.10L11.70 11.37L10.75 11.37L10.75 11.73L7.42 11.73L7.42 11.37L7.02 11.37L7.02 10.10L6.17 10.10L6.17 9.10L6.67 9.10L6.67 8.57L6.17 8.57L6.17 9.10L4.96 9.10L4.96 8.57L5.87 8.57L5.87 8.57Q5.86 7.38 5.86 6.74L5.86 6.74L5.86 5.91L5.86 5.91Q5.86 3.58 6.64 2.80L6.64 2.80L6.64 2.80Q7.36 1.95 9.03 1.95ZM7.83 5.32L7.83 5.32L7.85 5.32L7.83 5.35L7.83 6.23L7.10 6.23L7.10 6.56L7.83 6.56L7.83 6.56Q7.82 8.67 7.82 9.75L7.82 9.75L7.82 10.10L9.45 10.10L9.45 9.56L10.21 9.56L10.21 9.54L10.21 9.54Q10.21 8.54 10.19 6.75L10.19 6.75L10.19 6.75Q10.19 6.68 10.21 6.38L10.21 6.38L10.21 6.38Q10.21 4.45 9.98 4.01L9.98 4.01L9.98 4.01Q9.75 3.58 9.13 3.58L9.13 3.58L8.89 3.58L8.89 3.58Q8.14 3.58 7.96 4.24L7.96 4.24L7.96 4.24Q7.88 4.56 7.83 5.32ZM12.17 6.56L12.17 6.23L13.35 6.23L13.35 6.56L12.17 6.56ZM16.67 1.95L16.67 1.95L16.67 1.95Q18.77 1.95 19.43 3.42L19.43 3.42L19.43 3.42Q19.81 4.14 19.81 6.19L19.81 6.19L19.81 6.23L19.09 6.23L19.09 6.56L19.81 6.56L19.81 10.10L19.33 10.10L19.33 11.37L18.38 11.37L18.38 11.73L15.06 11.73L15.06 11.37L14.66 11.37L14.66 10.10L13.80 10.10L13.80 9.10L14.31 9.10L14.31 8.57L13.80 8.57L13.80 9.10L12.59 9.10L12.59 8.57L13.51 8.57L13.51 8.57Q13.49 7.38 13.49 6.74L13.49 6.74L13.49 5.91L13.49 5.91Q13.49 3.58 14.28 2.80L14.28 2.80L14.28 2.80Q15.00 1.95 16.67 1.95ZM15.47 5.32L15.47 5.32L15.49 5.32L15.47 5.35L15.47 6.23L14.74 6.23L14.74 6.56L15.47 6.56L15.47 6.56Q15.46 8.67 15.46 9.75L15.46 9.75L15.46 10.10L17.09 10.10L17.09 9.56L17.84 9.56L17.84 9.54L17.84 9.54Q17.84 8.54 17.83 6.75L17.83 6.75L17.83 6.75Q17.83 6.68 17.84 6.38L17.84 6.38L17.84 6.38Q17.84 4.45 17.62 4.01L17.62 4.01L17.62 4.01Q17.38 3.58 16.76 3.58L16.76 3.58L16.52 3.58L16.52 3.58Q15.78 3.58 15.60 4.24L15.60 4.24L15.60 4.24Q15.52 4.56 15.47 5.32ZM19.81 6.56L19.81 6.23L20.99 6.23L20.99 6.56L19.81 6.56ZM20.54 7.25L20.54 1.90L23.08 1.90L23.08 1.90Q25.30 1.90 25.92 3.05L25.92 3.05L25.92 3.05Q26.28 3.77 26.28 4.89L26.28 4.89L26.28 4.89Q26.26 5.10 26.26 5.30L26.26 5.30L27.67 5.30L27.67 5.78L26.22 5.78L26.22 5.76L26.22 5.76Q26.25 5.33 26.25 5.30L26.25 5.30L25.43 5.30L25.43 5.78L26.22 5.78L26.22 7.44L24.60 7.44L24.60 8.02L24.58 8.02L24.58 8.02Q22.71 8.03 22.46 8.03L22.46 8.03L22.46 8.90L22.11 8.90L22.11 10.44L22.31 10.44L22.31 11.73L20.77 11.73L20.77 11.12L20.56 11.12L20.56 10.62L20.56 10.62Q20.56 9.74 20.54 7.76L20.54 7.76L21.47 7.76L21.47 7.25L20.54 7.25ZM23.29 3.57L22.46 3.57L22.46 6.36L23.04 6.36L23.04 5.96L24.21 5.96L24.21 5.96Q24.43 5.75 24.43 4.76L24.43 4.76L24.43 4.76Q24.43 3.83 24.01 3.68L24.01 3.68L24.01 3.68Q23.85 3.57 23.29 3.57L23.29 3.57ZM28.10 6.80L28.10 2.00L32.89 2.00L32.89 3.60L32.89 3.60Q32.89 3.63 32.85 3.63L32.85 3.63L30.01 3.63L30.01 5.74L32.56 5.74L32.56 5.76L32.56 5.76Q32.56 5.84 32.53 6.79L32.53 6.79L32.53 6.79Q32.51 6.79 32.51 6.80L32.51 6.80L32.63 6.80L32.63 7.29L30.42 7.29L30.42 9.29L29.83 9.29L29.83 9.49L30.42 9.49L30.42 10.10L32.92 10.10L32.92 10.32L32.72 10.32L32.72 11.52L29.73 11.52L29.73 11.73L28.31 11.73L28.31 8.24L28.10 8.24L28.10 7.01L26.54 7.01L26.54 6.80L28.10 6.80ZM28.91 6.80L28.11 6.80L28.11 7.01L28.91 7.01L28.91 6.80ZM34.14 6.62L34.14 1.96L37.12 1.96L37.12 1.96Q38.98 1.96 39.68 3.22L39.68 3.22L39.68 3.22Q40.28 4.20 40.28 6.49L40.28 6.49L40.57 6.49L40.57 8.83L37.67 8.83L37.67 8.56L38.58 8.56L38.58 6.49L38.32 6.49L38.32 5.63L38.32 5.63Q38.32 4.19 37.67 3.79L37.67 3.79L37.67 3.79Q37.30 3.58 36.46 3.58L36.46 3.58L36.06 3.58L36.06 6.44L36.33 6.44L36.33 8.83L34.38 8.83L34.38 6.62L34.14 6.62ZM33.27 9.13L33.27 8.83L34.15 8.83L34.15 9.13L36.33 9.13L36.33 9.78L37.67 9.78L37.67 9.13L40.57 9.13L40.57 9.78L38.58 9.78L38.58 11.52L36.33 11.52L36.33 11.73L34.17 11.73L34.17 11.73Q34.14 11.73 34.14 11.70L34.14 11.70L34.14 9.13L33.27 9.13ZM36.33 9.13L36.33 8.83L37.67 8.83L37.67 9.13L36.33 9.13ZM40.57 9.13L40.57 8.83L42.49 8.83L42.49 9.13L40.57 9.13ZM44.63 1.93L44.63 1.93L46.63 1.93L46.63 1.93Q46.67 1.93 47.27 3.51L47.27 3.51L47.27 3.51Q47.33 3.56 48.53 6.60L48.53 6.60L49.04 6.60L49.04 1.93L50.80 1.93L50.80 7.49L51.00 7.49L51.00 9.66L50.29 9.66L50.29 10.08L51.00 10.08L51.00 11.37L48.36 11.37L48.36 9.73L47.90 9.73L47.90 9.73Q46.96 7.42 46.63 6.55L46.63 6.55L46.63 4.89L46.38 4.89L46.38 9.93L45.99 9.93L45.99 11.66L44.34 11.66L44.34 7.92L44.65 7.92L44.65 7.91L44.65 7.91Q44.63 3.07 44.63 1.93ZM50.88 5.35L50.88 4.98L51.06 4.98L51.06 4.98Q51.19 4.98 51.19 5.11L51.19 5.11L51.19 5.11Q51.19 5.16 51.15 5.16L51.15 5.16L51.15 5.16Q51.19 5.22 51.19 5.31L51.19 5.31L51.19 5.35L51.11 5.35L51.11 5.35Q51.10 5.21 51.06 5.21L51.06 5.21L50.98 5.21L50.98 5.35L50.88 5.35ZM51.10 5.06L50.98 5.06L50.98 5.15L51.06 5.15L51.06 5.15Q51.10 5.15 51.10 5.11L51.10 5.11L51.10 5.06ZM50.88 5.48L50.88 5.48L51.16 5.48L51.16 5.56L51.06 5.56L51.06 5.84L50.96 5.84L50.96 5.56L50.88 5.56L50.88 5.56Q50.85 5.56 50.85 5.52L50.85 5.52L50.85 5.51L50.85 5.51Q50.85 5.48 50.88 5.48ZM50.85 5.97L50.85 5.97L50.91 5.97L50.91 5.97Q50.96 5.97 51.00 6.19L51.00 6.19L51.03 6.19L51.08 5.97L51.18 5.97L51.06 6.34L50.98 6.34L50.98 6.34Q50.94 6.34 50.85 5.97ZM50.87 6.47L50.87 6.47L50.96 6.47L50.96 6.47Q50.97 6.53 51.03 6.57L51.03 6.57L51.03 6.57Q51.08 6.47 51.11 6.47L51.11 6.47L51.18 6.47L51.18 6.49L51.18 6.49Q51.08 6.64 51.08 6.67L51.08 6.67L51.08 6.67Q51.11 6.67 51.19 6.83L51.19 6.83L51.08 6.83L51.08 6.83Q51.08 6.78 51.02 6.73L51.02 6.73L51.02 6.73Q50.96 6.83 50.93 6.83L50.93 6.83L50.85 6.83L50.85 6.83Q50.96 6.66 50.96 6.65L50.96 6.65L50.96 6.65Q50.87 6.49 50.87 6.47ZM48.50 6.60L47.57 6.60L47.57 6.97L48.67 6.97L48.67 6.97Q48.54 6.60 48.50 6.60L48.50 6.60ZM49.85 6.60L49.06 6.60L49.06 6.97L48.68 6.97L48.68 6.97Q49.03 7.84 49.10 8.11L49.10 8.11L49.11 8.11L49.11 8.06L49.11 8.06Q49.06 7.16 49.06 6.97L49.06 6.97L49.85 6.97L49.85 6.60ZM50.88 7.33L50.88 6.97L51.04 6.97L51.04 6.97Q51.21 6.99 51.21 7.13L51.21 7.13L51.21 7.14L51.21 7.14Q51.21 7.33 51.06 7.33L51.06 7.33L50.88 7.33ZM51.06 7.05L50.98 7.05L50.98 7.26L50.98 7.26Q51.11 7.26 51.11 7.16L51.11 7.16L51.11 7.14L51.11 7.14Q51.11 7.06 51.06 7.05L51.06 7.05ZM48.00 9.83L48.00 9.83L48.25 9.83L48.25 9.91L48.07 9.91L48.07 9.97L48.21 9.97L48.21 9.97Q48.25 9.98 48.25 10.01L48.25 10.01L48.25 10.03L48.25 10.03Q48.25 10.06 48.21 10.06L48.21 10.06L48.07 10.06L48.07 10.12L48.23 10.12L48.23 10.12Q48.27 10.13 48.27 10.16L48.27 10.16L48.27 10.17L48.27 10.17Q48.27 10.21 48.23 10.21L48.23 10.21L48.00 10.21L48.00 10.21Q47.97 10.21 47.97 10.17L47.97 10.17L47.97 9.86L47.97 9.86Q47.97 9.83 48.00 9.83ZM46.01 10.01L46.01 10.01L46.12 10.01L46.12 10.01Q46.18 10.21 46.18 10.24L46.18 10.24L46.20 10.24L46.20 10.24Q46.24 10.01 46.28 10.01L46.28 10.01L46.35 10.01L46.35 10.03L46.35 10.03Q46.25 10.38 46.22 10.38L46.22 10.38L46.13 10.38L46.13 10.38Q46.13 10.33 46.01 10.01ZM48.13 10.32L48.13 10.32L48.17 10.32L48.17 10.32Q48.20 10.33 48.20 10.36L48.20 10.36L48.20 10.58L48.20 10.58Q48.20 10.66 48.12 10.71L48.12 10.71L48.07 10.71L48.07 10.71Q47.95 10.71 47.95 10.59L47.95 10.59L47.95 10.55L48.04 10.55L48.04 10.55Q48.04 10.62 48.07 10.62L48.07 10.62L48.10 10.62L48.10 10.36L48.10 10.36Q48.10 10.32 48.13 10.32ZM48.00 10.82L48.00 10.82L48.04 10.82L48.04 10.82Q48.07 10.82 48.07 10.95L48.07 10.95L48.21 10.82L48.30 10.82L48.30 10.83L48.17 10.99L48.17 10.99Q48.19 10.99 48.32 11.18L48.32 11.18L48.28 11.20L48.23 11.20L48.23 11.20Q48.21 11.20 48.10 11.05L48.10 11.05L48.10 11.05Q48.07 11.05 48.05 11.20L48.05 11.20L48.00 11.20L48.00 11.20Q47.97 11.20 47.97 11.17L47.97 11.17L47.97 10.86L47.97 10.86Q47.97 10.82 48.00 10.82ZM48.36 11.73L48.36 11.55L51.54 11.55L51.54 11.73L48.36 11.73ZM52.38 6.80L52.38 2.00L57.17 2.00L57.17 3.60L57.17 3.60Q57.17 3.63 57.13 3.63L57.13 3.63L54.29 3.63L54.29 5.74L56.84 5.74L56.84 5.76L56.84 5.76Q56.84 5.84 56.81 6.79L56.81 6.79L56.81 6.79Q56.79 6.79 56.79 6.80L56.79 6.80L56.91 6.80L56.91 7.29L54.70 7.29L54.70 9.29L54.11 9.29L54.11 9.49L54.70 9.49L54.70 10.10L57.20 10.10L57.20 10.32L57.00 10.32L57.00 11.52L54.01 11.52L54.01 11.73L52.59 11.73L52.59 8.24L52.38 8.24L52.38 7.01L50.82 7.01L50.82 6.80L52.38 6.80ZM53.19 6.80L52.39 6.80L52.39 7.01L53.19 7.01L53.19 6.80ZM57.65 3.57L57.65 1.93L63.40 1.93L63.40 3.57L61.50 3.57L61.50 10.34L62.36 10.34L62.36 10.54L61.50 10.54L61.50 11.29L60.98 11.29L60.98 11.55L61.35 11.55L61.35 11.73L59.60 11.73L59.60 11.73Q59.57 11.73 59.57 11.70L59.57 11.70L59.57 3.57L57.65 3.57ZM61.48 10.34L60.82 10.34L60.82 10.54L61.48 10.54L61.48 10.34ZM63.75 7.14L62.97 1.95L64.82 1.95L65.37 6.86L65.88 6.86L65.88 6.86Q65.90 6.80 66.33 1.95L66.33 1.95L68.67 1.95L68.67 1.95Q69.13 6.96 69.14 7.05L69.14 7.05L69.91 7.05L69.91 7.05Q70.42 2.65 70.49 1.95L70.49 1.95L72.34 1.95L71.57 7.14L71.42 7.14L71.42 8.10L70.03 8.10L70.03 8.34L71.13 8.34L71.13 9.80L70.08 9.80L70.08 11.09L69.78 11.09L69.78 11.65L68.59 11.65L68.59 8.48L67.83 8.48L67.83 7.34L67.83 7.34Q67.83 7.20 67.52 4.58L67.52 4.58L67.48 4.58L67.48 4.60L67.23 6.86L67.36 6.86L67.36 10.36L66.22 10.36L66.22 11.73L64.76 11.73L64.76 10.36L64.20 10.36L64.20 7.14L63.75 7.14ZM76.08 1.95L76.08 1.95L76.08 1.95Q78.18 1.95 78.85 3.42L78.85 3.42L78.85 3.42Q79.22 4.14 79.22 6.19L79.22 6.19L79.22 6.23L78.50 6.23L78.50 6.56L79.22 6.56L79.22 10.10L78.74 10.10L78.74 11.37L77.79 11.37L77.79 11.73L74.47 11.73L74.47 11.37L74.07 11.37L74.07 10.10L73.21 10.10L73.21 9.10L73.72 9.10L73.72 8.57L73.21 8.57L73.21 9.10L72.00 9.10L72.00 8.57L72.92 8.57L72.92 8.57Q72.91 7.38 72.91 6.74L72.91 6.74L72.91 5.91L72.91 5.91Q72.91 3.58 73.69 2.80L73.69 2.80L73.69 2.80Q74.41 1.95 76.08 1.95ZM74.88 5.32L74.88 5.32L74.90 5.32L74.88 5.35L74.88 6.23L74.15 6.23L74.15 6.56L74.88 6.56L74.88 6.56Q74.87 8.67 74.87 9.75L74.87 9.75L74.87 10.10L76.50 10.10L76.50 9.56L77.25 9.56L77.25 9.54L77.25 9.54Q77.25 8.54 77.24 6.75L77.24 6.75L77.24 6.75Q77.24 6.68 77.25 6.38L77.25 6.38L77.25 6.38Q77.25 4.45 77.03 4.01L77.03 4.01L77.03 4.01Q76.79 3.58 76.17 3.58L76.17 3.58L75.93 3.58L75.93 3.58Q75.19 3.58 75.01 4.24L75.01 4.24L75.01 4.24Q74.93 4.56 74.88 5.32ZM79.22 6.56L79.22 6.23L80.40 6.23L80.40 6.56L79.22 6.56ZM79.95 7.49L79.95 1.96L83.30 1.96L83.30 1.96Q84.98 1.96 85.48 3.14L85.48 3.14L85.48 3.14Q85.69 3.75 85.69 4.53L85.69 4.53L85.69 4.94L85.69 4.94Q85.69 6.36 85.07 7.11L85.07 7.11L84.36 7.11L84.36 7.47L85.44 7.47L85.44 9.81L84.80 9.81L84.80 10.17L85.77 10.17L85.77 11.55L83.73 11.55L83.73 9.34L82.95 9.34L82.95 7.92L81.58 7.92L81.58 10.34L81.87 10.34L81.87 11.73L79.99 11.73L79.99 11.73Q79.95 11.73 79.95 11.70L79.95 11.70L79.95 7.77L80.79 7.77L80.79 7.49L79.95 7.49ZM82.68 3.55L81.87 3.55L81.87 6.31L82.34 6.31L82.34 6.31Q83.38 6.31 83.55 6.11L83.55 6.11L83.55 6.11Q83.72 6.00 83.82 5.67L83.82 5.67L84.54 5.67L84.54 5.32L83.88 5.32L83.88 5.35L83.88 5.35Q83.83 5.67 83.80 5.67L83.80 5.67L82.87 5.67L82.87 5.32L83.85 5.32L83.85 5.32Q83.88 5.32 83.88 5.29L83.88 5.29L83.88 5.29Q83.90 4.87 83.90 4.81L83.90 4.81L83.90 4.81Q83.90 3.90 83.58 3.69L83.58 3.69L83.58 3.69Q83.34 3.55 82.68 3.55L82.68 3.55ZM86.02 10.60L86.02 2.00L87.93 2.00L87.93 3.83L87.93 3.83Q87.93 4.74 87.90 5.80L87.90 5.80L87.90 5.82L87.92 5.82L87.92 5.82Q88.15 5.37 89.21 3.51L89.21 3.51L89.21 3.51Q89.75 2.57 89.75 2.09L89.75 2.09L89.75 2.00L91.71 2.00L91.71 2.04L91.71 2.04Q91.71 2.98 90.95 4.09L90.95 4.09L89.78 5.78L90.92 8.21L91.96 8.21L91.96 8.50L90.79 8.50L90.79 8.52L90.79 8.52Q91.08 9.13 91.16 9.24L91.16 9.24L91.37 9.24L91.37 10.12L91.66 10.12L91.66 11.72L91.66 11.72Q91.16 11.73 90.92 11.73L90.92 11.73L90.45 11.73L90.45 11.73Q90.20 11.73 89.76 11.72L89.76 11.72L89.76 10.65L89.34 10.65L89.34 9.24L89.09 9.24L88.83 8.50L90.78 8.50L90.78 8.21L89.00 8.21L89.00 8.21Q89.00 8.18 88.68 7.23L88.68 7.23L88.67 7.23L88.67 7.23Q88.50 7.54 88.01 8.21L88.01 8.21L88.83 8.21L88.83 8.50L87.93 8.50L87.93 8.98L87.81 8.98L87.81 11.20L87.93 11.20L87.93 11.70L87.93 11.70Q87.93 11.73 87.90 11.73L87.90 11.73L86.05 11.73L86.05 11.73Q86.02 11.73 86.02 11.70L86.02 11.70L86.02 10.93L86.88 10.93L86.88 10.60L86.02 10.60ZM88.00 8.21L86.80 8.21L86.80 8.50L87.92 8.50L87.92 8.50Q87.92 8.45 88.00 8.21L88.00 8.21Z"></path></g><defs data-v-fde0c5aa=""><!----></defs><g data-v-fde0c5aa="" id="0cc244bd-0437-4d75-89b1-a9fedd7644d5" stroke="none" fill="#ffffff" transform="matrix(0.8696510791778564,0,0,0.8696510791778564,106.5174474276628,82.73337955306816)"><path style="marker:none" d="M43 19c-12.755 0-21.587 11.698-20 23-8.284 0-15 7.15-15 15 0 9.346 7.1 16 15 16h18.5l-3.75-3.781c-1.685-1.656-2.235-4.344-1.344-6.531.891-2.188 3.17-3.744 5.532-3.75 1.601 0 3.194.665 4.312 1.812L50 64.5l3.75-3.75a6.07 6.07 0 0 1 4.125-1.813c2.394-.069 4.75 1.453 5.688 3.657.937 2.203.396 4.948-1.313 6.625L58.5 73H75c10.169 0 17-6.67 17-15 0-6.966-4.906-13.81-12-15 0-12-11-17-19-13-3-6-9.452-11-18-11zm-1 44c-.74 0-2 .643-2 2 .021.529.204 1.046.594 1.406L47.187 73l-6.593 6.563A1.952 1.952 0 0 0 40 81c0 1.022.735 2 2 2a2.06 2.06 0 0 0 1.406-.594L50 75.812l6.594 6.594c.37.37.897.59 1.406.594 1.265 0 2-.978 2-2a1.952 1.952 0 0 0-.594-1.438L52.813 73l6.593-6.594c.39-.36.573-.877.594-1.406 0-1.357-1.26-2-2-2-.562 0-1.055.283-1.406.563L50 70.156l-6.594-6.594c-.35-.28-.844-.562-1.406-.562z" color="#000" overflow="visible"></path></g><!----></svg>